#!OML:ASF F:\VICON\USERDATA\INSTALL\rory3\rory3.ASF
:FULLY-SPECIFIED
:DEGREES
1955
root 0.266063 18.7592 4.97003 17.4071 -8.91877 -5.79274
lowerback -8.52331 -1.76288 3.91909
upperback -7.43698 -2.56798 2.89102
thorax -2.99725 -1.40096 0.657066
lowerneck -1.52257 -12.8442 -14.5192
upperneck 16.3958 -16.8152 1.55393
head 6.65792 -8.9435 1.50566
rclavicle -2.42269e-016 -2.88238e-014
rhumerus -46.7648 -5.0313 -76.226
rradius 25.986
rwrist 15.0795
rhand -19.3158 -42.7619
rfingers 7.12502
rthumb 7.00027 -792.626
lclavicle -2.42269e-016 -2.88238e-014
lhumerus -50.8379 2.60432 77.0545
lradius 27.5844
lwrist 8.90698
lhand -30.7954 -31.3788
lfingers 7.12502
lthumb -4.08556 -1.43825
rfemur -26.959 -1.23104 10.2072
rtibia 33.4008
rfoot 6.60677 -3.37235
rtoes -17.6672
lfemur -25.4192 6.85507 1.65449
ltibia 33.3026
lfoot 14.7489 9.18225
ltoes -12.697
1956
root 0.268159 18.5557 4.91729 17.4538 -9.22487 -6.07314
lowerback -8.41114 -1.69291 4.1253
upperback -7.27408 -2.48537 3.0025
thorax -2.89122 -1.36244 0.661359
lowerneck -2.20891 -12.8681 -14.2786
upperneck 16.3881 -16.7071 1.26295
head 6.71498 -8.88497 1.34974
rclavicle 3.84773e-014 1.94809e-014
rhumerus -45.8351 -5.70962 -75.6888
rradius 25.6556
rwrist 15.8174
rhand -21.2328 -42.435
rfingers 7.12502
rthumb 5.14961 -792.352
lclavicle 3.84773e-014 1.94809e-014
lhumerus -50.5828 4.11443 75.9736
lradius 26.5642
lwrist 7.78822
lhand -30.2719 -31.2348
lfingers 7.12502
lthumb -3.57999 -1.28516
rfemur -27.6918 -2.01529 10.2852
rtibia 34.9544
rfoot 5.95806 -2.82076
rtoes -19.1279
lfemur -25.762 7.5155 2.22538
ltibia 34.4425
lfoot 14.1035 7.30014
ltoes -14.6145
1957
root 0.276211 18.3348 4.85813 17.3897 -9.5867 -6.11932
lowerback -8.08378 -1.61851 4.13008
upperback -7.13444 -2.37163 3.04648
thorax -2.92057 -1.30328 0.717571
lowerneck -2.68737 -12.8845 -14.1418
upperneck 16.1965 -16.6367 1.12736
head 6.7032 -8.83936 1.27182
rclavicle -6.89534e-015 2.18663e-014
rhumerus -44.9869 -6.09342 -75.3077
rradius 25.4981
rwrist 16.2768
rhand -24.5567 -40.6047
rfingers 7.12502
rthumb 1.9397 -790.576
lclavicle -6.89534e-015 2.18663e-014
lhumerus -50.2164 5.19088 75.2886
lradius 25.3218
lwrist 7.22052
lhand -29.4782 -30.7069
lfingers 7.12502
lthumb -2.81356 -0.745664
rfemur -28.5121 -2.97404 10.1655
rtibia 36.8102
rfoot 5.63239 -2.05906
rtoes -23.4708
lfemur -26.0357 8.03737 2.47684
ltibia 35.7479
lfoot 13.307 5.40708
ltoes -16.0692
1958
root 0.280643 18.1011 4.79281 17.3152 -9.89076 -6.06086
lowerback -7.58614 -1.59478 3.93682
upperback -7.11562 -2.30004 3.08471
thorax -3.16366 -1.26107 0.884854
lowerneck -2.97044 -12.8271 -13.8882
upperneck 15.9259 -16.505 0.976231
head 6.61651 -8.7611 1.19869
rclavicle 1.28682e-014 1.39149e-015
rhumerus -44.3057 -6.08891 -75.1125
rradius 25.3888
rwrist 16.2153
rhand -26.7078 -40.4203
rfingers 7.12502
rthumb -0.137906 -790.4
lclavicle 1.28682e-014 1.39149e-015
lhumerus -50.1197 5.95634 74.7937
lradius 24.3475
lwrist 7.33765
lhand -27.9854 -29.3212
lfingers 7.12502
lthumb -1.37179 0.654143
rfemur -29.4929 -3.89414 9.97192
rtibia 38.9233
rfoot 5.34903 -1.41175
rtoes -26.241
lfemur -26.438 8.51766 2.6156
ltibia 37.2124
lfoot 11.8974 3.97455
ltoes -18.1521
1959
root 0.28497 17.8548 4.72941 17.2697 -10.1623 -5.99181
lowerback -6.96342 -1.64852 3.74013
upperback -7.1688 -2.32313 3.14669
thorax -3.55362 -1.26724 1.08138
lowerneck -3.45425 -12.738 -13.583
upperneck 15.838 -16.2965 0.736747
head 6.60622 -8.65147 1.07957
rclavicle -3.98812e-015 1.74931e-014
rhumerus -43.5018 -5.82809 -75.0496
rradius 25.0985
rwrist 15.889
rhand -24.2329 -46.2076
rfingers 7.12502
rthumb 2.25242 -796.175
lclavicle -3.98812e-015 1.74931e-014
lhumerus -50.2284 6.87252 74.0528
lradius 23.9498
lwrist 6.37456
lhand -28.6945 -32.8965
lfingers 7.12502
lthumb -2.05667 -2.9267
rfemur -30.6192 -4.75704 9.76599
rtibia 41.2481
rfoot 5.00932 -0.623972
rtoes -26.7446
lfemur -27.0147 9.0225 2.69746
ltibia 38.8738
lfoot 9.46274 3.19586
ltoes -21.299
1960
root 0.292954 17.5923 4.66125 17.3217 -10.3901 -5.86174
lowerback -6.89451 -1.61236 3.74639
upperback -6.81772 -2.28693 3.015
thorax -3.22662 -1.24578 0.933884
lowerneck -4.5915 -12.8616 -13.0243
upperneck 15.6547 -16.314 0.558683
head 6.67287 -8.62054 0.879927
rclavicle 5.1976e-014 4.07509e-015
rhumerus -42.0376 -5.91645 -75.2526
rradius 24.9615
rwrist 15.6215
rhand -25.0529 -47.515
rfingers 7.12502
rthumb 1.4605 -797.49
lclavicle 5.1976e-014 4.07509e-015
lhumerus -49.4566 7.57751 73.4154
lradius 23.4305
lwrist 5.5352
lhand -26.0842 -25.2734
lfingers 7.12502
lthumb 0.46438 4.70583
rfemur -31.9926 -5.66854 9.51981
rtibia 43.7048
rfoot 4.30991 0.580128
rtoes -28.1474
lfemur -27.7685 9.54277 2.63058
ltibia 40.7656
lfoot 5.74317 3.42533
ltoes -23.5761
1961
root 0.298879 17.3124 4.5851 17.3811 -10.6502 -5.71824
lowerback -5.88344 -1.6524 3.41197
upperback -7.15758 -2.25692 3.12167
thorax -4.12909 -1.22421 1.27857
lowerneck -5.0641 -12.8352 -12.7764
upperneck 15.6972 -16.1477 0.00871421
head 6.68825 -8.56134 0.665332
rclavicle 3.61571e-014 -1.43125e-014
rhumerus -41.6722 -5.05543 -75.3378
rradius 25.3195
rwrist 15.2466
rhand -25.7591 -48.7975
rfingers 7.12502
rthumb 0.778376 -798.776
lclavicle 3.61571e-014 -1.43125e-014
lhumerus -49.8169 8.24049 72.891
lradius 22.8973
lwrist 4.74829
lhand -25.7363 -26.0553
lfingers 7.12502
lthumb 0.800456 3.92294
rfemur -33.5013 -6.39575 9.27587
rtibia 46.2315
rfoot 2.44443 1.6875
rtoes -29.3421
lfemur -28.5669 10.4819 2.47703
ltibia 42.9409
lfoot 1.3929 3.94591
ltoes -26.5473
1962
root 0.299027 17.0246 4.5088 17.3273 -10.9379 -5.49112
lowerback -5.06232 -1.63926 3.10735
upperback -7.29538 -2.18535 3.06671
thorax -4.72416 -1.17947 1.42666
lowerneck -5.25479 -12.9211 -12.8167
upperneck 15.454 -16.2162 -0.0654347
head 6.6429 -8.59301 0.636387
rclavicle 2.33137e-014 -2.98177e-015
rhumerus -41.17 -4.37254 -75.5753
rradius 25.7155
rwrist 14.9529
rhand -26.852 -49.4473
rfingers 7.12502
rthumb -0.2771 -799.427
lclavicle 2.33137e-014 -2.98177e-015
lhumerus -49.8692 8.50973 72.4448
lradius 22.5788
lwrist 4.01473
lhand -25.9714 -28.5789
lfingers 7.12502
lthumb 0.57338 1.40006
rfemur -34.9113 -6.95111 8.97092
rtibia 48.8132
rfoot -0.690076 1.95436
rtoes -32.1174
lfemur -29.4005 12.0561 2.17532
ltibia 45.3499
lfoot -2.50765 4.38083
ltoes -32.1781
1963
root 0.29783 16.7352 4.42859 17.3052 -10.9468 -5.32161
lowerback -4.47192 -1.67457 3.09565
upperback -7.28381 -2.2071 2.91435
thorax -5.04985 -1.19504 1.29645
lowerneck -6.01306 -12.8862 -12.0207
upperneck 15.3975 -16.0373 -0.76778
head 6.6128 -8.50571 0.292769
rclavicle 4.2439e-014 -2.32578e-014
rhumerus -40.4841 -3.94307 -75.9041
rradius 26.3339
rwrist 15.0514
rhand -25.8796 -51.5984
rfingers 7.12502
rthumb 0.662048 -801.577
lclavicle 4.2439e-014 -2.32578e-014
lhumerus -49.6707 8.58969 71.98
lradius 22.6351
lwrist 3.23205
lhand -25.0144 -24.0846
lfingers 7.12502
lthumb 1.4977 5.88987
rfemur -36.174 -7.74775 8.84893
rtibia 51.4043
rfoot -4.6233 1.4407
rtoes -34.3872
lfemur -30.6153 13.7523 1.96404
ltibia 47.8738
lfoot -5.84495 5.23308
ltoes -35.4565
1964
root 0.292774 16.4549 4.3395 17.2496 -10.9005 -5.2049
lowerback -3.75493 -1.70093 3.00925
upperback -7.23281 -2.21126 2.79377
thorax -5.40221 -1.19649 1.24454
lowerneck -6.22685 -12.9468 -11.9346
upperneck 14.9347 -16.1452 -0.446367
head 6.52218 -8.5164 0.371051
rclavicle 1.65535e-014 -1.75924e-014
rhumerus -39.6951 -3.67475 -76.1421
rradius 26.9929
rwrist 15.3548
rhand -26.335 -51.4517
rfingers 7.12502
rthumb 0.222145 -801.431
lclavicle 1.65535e-014 -1.75924e-014
lhumerus -49.306 8.58726 71.6252
lradius 22.8584
lwrist 2.70668
lhand -28.9979 -40.3617
lfingers 7.12502
lthumb -2.34972 -10.3949
rfemur -37.3447 -8.60043 8.82789
rtibia 53.9849
rfoot -8.52124 0.170575
rtoes -36.9612
lfemur -32.0315 15.3548 1.89841
ltibia 50.3623
lfoot -8.84711 6.18979
ltoes -35.2427
1965
root 0.282592 16.199 4.25922 17.1491 -11.0273 -5.0109
lowerback -2.93534 -1.68023 2.65737
upperback -7.123 -2.15307 2.67546
thorax -5.74021 -1.15145 1.34327
lowerneck -6.46676 -13.0978 -11.7178
upperneck 14.2754 -16.3771 -0.173628
head 6.36408 -8.58032 0.410769
rclavicle -2.40953e-014 -2.45499e-014
rhumerus -38.7003 -3.57613 -76.2335
rradius 27.1634
rwrist 15.5024
rhand -26.1777 -52.6855
rfingers 7.12502
rthumb 0.374143 -802.665
lclavicle -2.40953e-014 -2.45499e-014
lhumerus -48.6948 8.61071 71.3222
lradius 22.9824
lwrist 2.32155
lhand -29.4999 -40.4497
lfingers 7.12502
lthumb -2.83451 -10.4888
rfemur -38.5109 -9.36649 8.68682
rtibia 56.4833
rfoot -12.0923 -1.23137
rtoes -38.3779
lfemur -33.3644 17.033 1.7827
ltibia 52.7115
lfoot -11.5635 7.14212
ltoes -34.7514
1966
root 0.270533 15.9587 4.18785 17.1454 -11.1908 -4.73889
lowerback -2.09502 -1.7131 2.21623
upperback -7.07966 -2.17246 2.57443
thorax -6.15908 -1.13933 1.51453
lowerneck -7.71219 -13.1903 -10.7354
upperneck 14.25 -16.3472 -0.939316
head 6.41001 -8.55902 -0.0252216
rclavicle 3.65958e-014 7.70291e-015
rhumerus -37.7255 -3.34991 -76.3225
rradius 27.4716
rwrist 15.7296
rhand -26.4623 -53.0221
rfingers 7.12502
rthumb 0.0992402 -803.002
lclavicle 3.65958e-014 7.70291e-015
lhumerus -48.1301 8.75807 70.9729
lradius 23.0447
lwrist 2.03298
lhand -30.0838 -39.0891
lfingers 7.12502
lthumb -3.39837 -9.13641
rfemur -39.806 -10.1128 8.45847
rtibia 58.8613
rfoot -15.5382 -2.3109
rtoes -38.2861
lfemur -34.7399 18.7689 1.54646
ltibia 54.9702
lfoot -14.2871 7.73243
ltoes -34.4818
1967
root 0.258238 15.7281 4.10555 17.142 -11.2833 -4.33679
lowerback -1.03044 -1.81203 1.63764
upperback -7.1084 -2.28522 2.47121
thorax -6.7803 -1.16338 1.77706
lowerneck -9.27738 -13.1885 -9.65276
upperneck 14.468 -16.1632 -1.88163
head 6.55926 -8.47865 -0.544367
rclavicle -1.41021e-014 9.83984e-015
rhumerus -36.9186 -2.67681 -76.6214
rradius 28.3763
rwrist 15.666
rhand -27.0374 -52.5766
rfingers 7.12502
rthumb -0.456225 -802.556
lclavicle -1.41021e-014 9.83984e-015
lhumerus -47.6188 8.75261 70.7721
lradius 23.3623
lwrist 2.32139
lhand -30.5049 -37.4708
lfingers 7.12502
lthumb -3.80506 -7.525
rfemur -41.2849 -10.874 8.13121
rtibia 61.23
rfoot -18.444 -3.17462
rtoes -37.0407
lfemur -36.2152 20.3908 1.15297
ltibia 57.2405
lfoot -16.7764 7.74518
ltoes -34.0744
1968
root 0.248113 15.5038 4.01881 17.1144 -11.3582 -4.02153
lowerback 0.0955601 -1.78962 1.20074
upperback -7.37906 -2.23895 2.3756
thorax -7.71276 -1.11155 1.97459
lowerneck -7.81863 -13.1631 -10.1838
upperneck 12.7985 -16.3758 -0.828938
head 5.92186 -8.51173 -0.0088105
rclavicle -4.85236e-015 5.26779e-015
rhumerus -36.6447 -2.16063 -76.6658
rradius 29.3133
rwrist 15.6233
rhand -26.742 -52.9034
rfingers 7.12502
rthumb -0.170868 -802.883
lclavicle -4.85236e-015 5.26779e-015
lhumerus -47.501 7.96798 71.0793
lradius 23.8978
lwrist 3.79584
lhand -30.9139 -37.92
lfingers 7.12502
lthumb -4.20004 -7.98169
rfemur -42.904 -11.7686 7.95556
rtibia 63.7121
rfoot -20.7186 -4.28786
rtoes -36.1032
lfemur -37.7832 21.9703 0.843876
ltibia 59.6311
lfoot -18.7978 7.69431
ltoes -33.5839
